<svg id="Layer_1" data-name="Layer 1" xmlns="http://www.w3.org/2000/svg" viewBox="0 0 512 512"><defs><style>.cls-1{fill:#141f38;}</style></defs><title>woman-1-glyph</title><path class="cls-1" d="M97.19,344.56a74.43,74.43,0,0,1-3.45-26.46L102.4,153.6a153.6,153.6,0,0,1,307.2,0l8.66,164.49a74.43,74.43,0,0,1-3.45,26.46,184.59,184.59,0,0,0-82-44.66V277.8A114.61,114.61,0,0,0,371.2,192V160a44.85,44.85,0,0,0-44.8-44.8H185.6A44.85,44.85,0,0,0,140.8,160v29.11a119,119,0,0,0,38.4,87.79v23A184.59,184.59,0,0,0,97.19,344.56Zm103-83.31,4.61,3.84v45.18l51.2,32.9,51.2-32.9V265.73l4.8-3.84A89.2,89.2,0,0,0,345.6,192V160a19.26,19.26,0,0,0-19.2-19.2H185.6A19.26,19.26,0,0,0,166.4,160v29.12A93.45,93.45,0,0,0,200.19,261.25Zm130.24,64.51L256,373.63l-74.43-47.87C112.7,344.58,64,420.29,64,492.8A19.26,19.26,0,0,0,83.2,512H428.8A19.26,19.26,0,0,0,448,492.8C448,420.29,399.3,344.58,330.43,325.76Z"/></svg>